<svg xmlns="http://www.w3.org/2000/svg" viewBox="88 102 342 308" role="img" aria-labelledby="title description">
  <title id="title">IR Skill code-built monogram</title>
  <desc id="description">A transparent IR monogram assembled entirely from dense code characters.</desc>
  <defs>
    <linearGradient id="code" x1="116" y1="112" x2="400" y2="396" gradientUnits="userSpaceOnUse">
      <stop stop-color="#0F766E"/>
      <stop offset=".5" stop-color="#157FAD"/>
      <stop offset="1" stop-color="#3B82F6"/>
    </linearGradient>
    <clipPath id="irMark">
      <path d="M108 122H202V154H170V358H202V390H108V358H140V154H108Z"/>
      <rect x="228" y="122" width="40" height="268"/>
      <rect x="266" y="122" width="88" height="33"/>
      <rect x="352" y="151" width="34" height="83"/>
      <rect x="266" y="231" width="88" height="34"/>
      <path d="M302 263H350L410 390H365Z"/>
    </clipPath>
  </defs>

  <g clip-path="url(#irMark)" fill="url(#code)" font-family="ui-monospace, SFMono-Regular, Menlo, Consolas, monospace" font-size="18" font-weight="700" letter-spacing="1.1">
    <text x="78" y="142">&lt;&gt; [] {} // 0x7F =&gt; &amp;&amp; :: ++ --</text>
    <text x="78" y="160">01 @&amp; [] =&gt; $IR /? ## &lt;/&gt; 0x9A</text>
    <text x="78" y="178">{} [] &amp;&amp; :: // ++ =&gt; 0x42 $DATA</text>
    <text x="78" y="196">&lt;/&gt; #! [] %&amp; 01 =&gt; :: REUSE</text>
    <text x="78" y="214">[ ] { } // 0xFF &amp;&amp; ==&gt; ++ --</text>
    <text x="78" y="232">$ /? &lt;&gt; :: 0101 ## =&gt; [] {}</text>
    <text x="78" y="250">&amp;&amp; [] 0x2A // ++ -- &lt;/&gt; @IR</text>
    <text x="78" y="268">{} #! =&gt; $CACHE :: [] %&amp; 010</text>
    <text x="78" y="286">&lt;&gt; [] { } // 0xC0 &amp;&amp; ==&gt; ++</text>
    <text x="78" y="304">01 @&amp; [] =&gt; $FILE /? ## &lt;/&gt;</text>
    <text x="78" y="322">{} [] &amp;&amp; :: // ++ =&gt; 0x4D $WIKI</text>
    <text x="78" y="340">&lt;/&gt; #! [] %&amp; 01 =&gt; :: ARCHIVE</text>
    <text x="78" y="358">[ ] { } // 0xAA &amp;&amp; ==&gt; ++ --</text>
    <text x="78" y="376">$ /? &lt;&gt; :: 0101 ## =&gt; [] {}</text>
    <text x="78" y="394">&amp;&amp; [] 0x2A // ++ -- &lt;/&gt; @LOCAL</text>
  </g>
</svg>
